<svg width="47" height="44" viewBox="0 0 47 44" fill="none" xmlns="http://www.w3.org/2000/svg">
<g clip-path="url(#clip0_4039_768)" filter="url(#filter0_d_4039_768)">
<path d="M16 6H13V9H16V6ZM19 6H16V9H19V6ZM13 9H10V12H13V9ZM13 12H10V15H13V12ZM13 15H10V18H13V15ZM22 6H19V9H22V6ZM16 18H13V21H16V18ZM19 21H16V24H19V21ZM22 24H19V27H22V24ZM31 6H34V9H31V6ZM28 6H31V9H28V6ZM34 9H37V12H34V9ZM34 12H37V15H34V12ZM34 15H37V18H34V15ZM25 6H28V9H25V6ZM31 18H34V21H31V18ZM28 21H31V24H28V21ZM25 24H28V27H25V24ZM25 27H22V30H25V27ZM25 9H22V12H25V9Z" fill="black"/>
<path d="M16 9H13V12H16V9ZM19 12H16V15H19V12ZM22 9H19V12H22V9ZM16 15H13V18H16V15ZM19 15H16V18H19V15ZM19 18H16V21H19V18ZM22 12H19V15H22V12ZM22 21H19V24H22V21ZM22 18H19V21H22V18ZM31 9H34V12H31V9ZM28 9H31V12H28V9ZM31 12H34V15H31V12ZM28 12H31V15H28V12ZM25 9H28V12H25V9ZM31 15H34V18H31V15ZM28 15H31V18H28V15ZM28 18H31V21H28V18ZM25 12H28V15H25V12ZM25 21H28V24H25V21ZM25 18H28V21H25V18ZM25 21H22V24H25V21ZM25 24H22V27H25V24Z" fill="#FF0000"/>
<path d="M22 15H19V18H22V15ZM25 15H28V18H25V15ZM25 15H22V18H25V15ZM25 12H22V15H25V12ZM25 18H22V21H25V18Z" fill="white"/>
<path d="M40 13H43V16H40V13ZM31 27H34V30H31V27ZM22 33H25V36H22V33ZM13 27H16V30H13V27ZM28 0H31V3H28V0ZM37 3H40V6H37V3ZM7 3H10V6H7V3ZM16 0H19V3H16V0ZM4 13H7V16H4V13Z" fill="#FF0000"/>
</g>
<defs>
<filter id="filter0_d_4039_768" x="0" y="0" width="47" height="44" filterUnits="userSpaceOnUse" color-interpolation-filters="sRGB">
<feFlood flood-opacity="0" result="BackgroundImageFix"/>
<feColorMatrix in="SourceAlpha" type="matrix" values="0 0 0 0 0 0 0 0 0 0 0 0 0 0 0 0 0 0 127 0" result="hardAlpha"/>
<feOffset dy="4"/>
<feGaussianBlur stdDeviation="2"/>
<feComposite in2="hardAlpha" operator="out"/>
<feColorMatrix type="matrix" values="0 0 0 0 0 0 0 0 0 0 0 0 0 0 0 0 0 0 0.25 0"/>
<feBlend mode="normal" in2="BackgroundImageFix" result="effect1_dropShadow_4039_768"/>
<feBlend mode="normal" in="SourceGraphic" in2="effect1_dropShadow_4039_768" result="shape"/>
</filter>
<clipPath id="clip0_4039_768">
<rect width="39" height="36" fill="white" transform="translate(4)"/>
</clipPath>
</defs>
</svg>
